<?xml version="1.0" encoding="iso-8859-1"?>
<!-- Generator: Adobe Illustrator 29.5.1, SVG Export Plug-In . SVG Version: 9.03 Build 0)  -->
<svg version="1.1" id="Layer_1" xmlns="http://www.w3.org/2000/svg" xmlns:xlink="http://www.w3.org/1999/xlink" x="0px" y="0px"
	 viewBox="0 0 32 32" style="enable-background:new 0 0 32 32;" xml:space="preserve">
<g>
	<path style="fill:#39B54A;" d="M16,30.75C7.867,30.75,1.25,24.133,1.25,16C1.25,7.867,7.867,1.25,16,1.25
		c8.133,0,14.75,6.617,14.75,14.75C30.75,24.133,24.133,30.75,16,30.75z"/>
	<path style="fill:#006837;" d="M16,1.5c7.995,0,14.5,6.505,14.5,14.5S23.995,30.5,16,30.5S1.5,23.995,1.5,16S8.005,1.5,16,1.5
		 M16,1C7.716,1,1,7.716,1,16s6.716,15,15,15s15-6.716,15-15S24.284,1,16,1L16,1z"/>
</g>
<line style="fill:none;stroke:#0000FF;stroke-miterlimit:10;" x1="6.857" y1="13.553" x2="25.082" y2="13.553"/>
<path style="fill:none;stroke:#000000;stroke-width:2;stroke-miterlimit:10;" d="M26.907,10.522
	c-1.943,2.645-3.072,5.386-3.242,8.813c-0.115,1.25-0.124,3.681-0.892,3.147c-2.194-2.053-4.198-4.348-6.804-6.013l0,0
	c-2.607,1.665-4.611,3.96-6.804,6.013c-0.768,0.534-0.777-1.897-0.892-3.147c-0.17-3.427-1.298-6.168-3.242-8.813"/>
</svg>
